<svg width="108" height="36" viewBox="0 0 108 36" fill="none" xmlns="http://www.w3.org/2000/svg">
  <path d="M21.88 0H14.12C6.32 0 0 6.32 0 14.12V21.88C0 29.68 6.32 36 14.12 36H21.88C29.68 36 36 29.68 36 21.88V14.12C36 6.32 29.68 0 21.88 0Z" fill="#60BB46"/>
  <path d="M25.64 13.99C25.66 14.26 25.67 14.53 25.67 14.8C25.67 20.23 21.26 24.64 15.83 24.64C10.4 24.64 6 20.23 6 14.8C6 9.37 10.4 4.97 15.83 4.97C18.27 4.97 20.49 5.92 22.17 7.47L20.07 9.57C18.92 8.52 17.43 7.88 15.83 7.88C12.01 7.88 8.91 10.98 8.91 14.8C8.91 18.63 12.01 21.73 15.83 21.73C19.21 21.73 22.03 19.31 22.65 16.09H15.83V13.99H25.64Z" fill="white"/>
  <path d="M50.21 7.09V8.6H47.94V8.68C49.09 9.07 49.09 9.85 49.09 10.25V18.17H44.97V10.16H42.09V8.6H39.82V7.09H50.21Z" fill="#212322"/>
  <path d="M55.99 15.4C56.31 16.57 57.07 17.05 58.07 17.05C59.06 17.05 59.82 16.55 60.14 15.4H55.99ZM58.07 12.88C57.15 12.88 56.4 13.31 55.99 14.3H62.12C62.15 14.14 62.17 13.95 62.17 13.73C62.17 11.71 60.57 10.16 58.09 10.16C55.35 10.16 53.78 12.04 53.78 14.28C53.78 16.52 55.35 18.4 58.09 18.4C60.38 18.4 61.88 17 62.15 14.95H60.09C59.82 16.18 58.98 16.66 58.07 16.66C56.92 16.66 56.12 15.91 55.99 14.77V14.74H62.14C62.38 11.17 59.54 10.16 58.07 10.16V12.88Z" fill="#212322"/>
  <path d="M70.21 15.4C70.53 16.57 71.29 17.05 72.28 17.05C73.28 17.05 74.04 16.55 74.36 15.4H70.21ZM72.28 12.88C71.36 12.88 70.61 13.31 70.21 14.3H76.34C76.36 14.14 76.38 13.95 76.38 13.73C76.38 11.71 74.79 10.16 72.31 10.16C69.57 10.16 68 12.04 68 14.28C68 16.52 69.57 18.4 72.31 18.4C74.6 18.4 76.1 17 76.36 14.95H74.31C74.04 16.18 73.19 16.66 72.28 16.66C71.13 16.66 70.33 15.91 70.21 14.77V14.74H76.36C76.6 11.17 73.75 10.16 72.28 10.16V12.88Z" fill="#212322"/>
  <path d="M79.93 18.17H82.13V10.39H79.93V18.17ZM79.93 9.23H82.13V7.09H79.93V9.23Z" fill="#212322"/>
  <path d="M90.38 10.39H88.19V14.7C88.19 16.19 87.43 16.74 86.59 16.74C85.63 16.74 85.2 16.07 85.2 14.9V10.39H83V15.2C83 17.41 84.36 18.4 85.85 18.4C86.9 18.4 87.74 17.81 88.19 16.95V18.17H90.38V10.39Z" fill="#212322"/>
  <path d="M95.72 12.61L95.74 12.59C96.14 11.69 96.76 11.29 97.54 11.29C97.78 11.29 98.02 11.34 98.23 11.42L98.53 9.35C98.21 9.18 97.83 9.1 97.4 9.1C96.33 9.1 95.51 9.73 95.09 11V10.39H92.9V18.17H95.1V12.88C95.1 12.82 95.72 12.61 95.72 12.61Z" fill="#212322"/>
</svg> 